<?xml version="1.0" encoding="iso-8859-1"?>
<svg height="800px" width="800px" version="1.1" id="Layer_1" xmlns="http://www.w3.org/2000/svg" xmlns:xlink="http://www.w3.org/1999/xlink" 
	 viewBox="0 0 495 495" xml:space="preserve">
<g>
	<path style="fill:#B39A7C;" d="M428.22,380.075c-6.965,0-13.683-1.075-20-3.063V455h40v-77.988
		C441.902,379,435.185,380.075,428.22,380.075z"/>
	<path style="fill:#B39A7C;" d="M86.78,377.012c-6.317,1.987-13.035,3.063-20,3.063s-13.683-1.075-20-3.063V455h40V377.012z"/>
	<path style="fill:#A78966;" d="M267.5,377.927c-6.448,1.403-13.138,2.148-20,2.148s-13.552-0.746-20-2.148V455h40V377.927z"/>
	<path style="fill:#91DC5A;" d="M428.22,146c-36.823,0-66.78,29.958-66.78,66.78v100.515c0,29.858,19.698,55.198,46.78,63.718
		c6.317,1.987,13.035,3.063,20,3.063V146z"/>
	<path style="fill:#91DC5A;" d="M66.78,146C29.957,146,0,175.958,0,212.78v100.515c0,29.858,19.698,55.198,46.78,63.718
		c6.317,1.987,13.035,3.063,20,3.063V146z"/>
	<path style="fill:#91DC5A;" d="M247.5,0c-51.837,0-94.01,42.173-94.01,94.01v192.055c0,44.975,31.749,82.668,74.01,91.861
		c6.448,1.403,13.138,2.148,20,2.148V0z"/>
	<path style="fill:#6DC82A;" d="M428.22,380.075c6.965,0,13.683-1.075,20-3.063c27.082-8.519,46.78-33.86,46.78-63.718V212.78
		c0-36.823-29.957-66.78-66.78-66.78V380.075z"/>
	<path style="fill:#6DC82A;" d="M66.78,380.075c6.965,0,13.683-1.075,20-3.063c27.082-8.519,46.78-33.86,46.78-63.718V212.78
		c0-36.823-29.957-66.78-66.78-66.78V380.075z"/>
	<path style="fill:#6DC82A;" d="M247.5,380.075c6.862,0,13.552-0.746,20-2.148c42.261-9.193,74.01-46.886,74.01-91.861V94.01
		C341.51,42.173,299.337,0,247.5,0V380.075z"/>
	<polygon style="fill:#00665A;" points="267.5,455 227.5,455 86.78,455 46.78,455 0,455 0,495 495,495 495,455 448.22,455 
		408.22,455 	"/>
</g>
</svg>